<svg width="28" height="24" viewBox="0 0 28 24" fill="none" xmlns="http://www.w3.org/2000/svg">
<path d="M7.66666 19.5V18H10.6667V19.5H7.66666ZM25.6667 10.5C26.4635 10.5 27.1667 11.2031 27.1667 12V18C27.1667 18.8438 26.4635 19.5 25.6667 19.5H24.1667C24.1667 21.9844 22.1042 24 19.6667 24H7.66666C5.18228 24 3.16666 21.9844 3.16666 19.5H1.66666C0.822906 19.5 0.166656 18.8438 0.166656 18V12C0.166656 11.2031 0.822906 10.5 1.61978 10.5H1.66666H3.16666V9C3.16666 6.5625 5.18228 4.5 7.66666 4.5H12.9167V0.75C12.9167 0.375 13.2448 0 13.6667 0C14.0417 0 14.4167 0.375 14.4167 0.75V4.5H19.6667C22.1042 4.5 24.1667 6.5625 24.1667 9V10.5H25.6667ZM3.16666 18V12H1.66666V18H3.16666ZM22.6667 19.5V9C22.6667 7.35938 21.3073 6 19.6667 6H7.66666H7.61978C5.97916 6 4.66666 7.35938 4.66666 9V19.5C4.66666 21.1875 5.97916 22.5 7.66666 22.5H19.6667C21.3073 22.5 22.6198 21.1875 22.6667 19.5ZM25.6667 18V12H24.1667V18H25.6667ZM18.1667 9C19.8073 9.04688 21.1198 10.3594 21.1667 12C21.1667 13.6875 19.8073 15 18.1667 15C16.4792 15 15.1667 13.6875 15.1667 12C15.1667 10.3594 16.4792 9 18.1667 9ZM18.1667 13.5C18.9635 13.5 19.6667 12.8438 19.6667 12.0469V12C19.6667 11.2031 18.9635 10.5 18.1667 10.5C17.3229 10.5 16.6667 11.2031 16.6667 12C16.6667 12.8438 17.3229 13.5 18.1667 13.5ZM16.6667 19.5V18H19.6667V19.5H16.6667ZM12.1667 19.5V18H15.1667V19.5H12.1667ZM9.16666 9C10.8073 9.04688 12.1198 10.3594 12.1667 12C12.1667 13.6875 10.8073 15 9.16666 15C7.47916 15 6.16666 13.6875 6.16666 12C6.16666 10.3594 7.47916 9 9.16666 9ZM9.16666 13.5C9.96353 13.5 10.6667 12.8438 10.6667 12.0469V12C10.6667 11.2031 9.96353 10.5 9.16666 10.5C8.32291 10.5 7.66666 11.2031 7.66666 12C7.66666 12.8438 8.32291 13.5 9.16666 13.5Z" fill="#00A894"/>
</svg>
