<svg width="25" height="24" viewBox="0 0 25 24" fill="none" xmlns="http://www.w3.org/2000/svg">
<path d="M17.9167 4.17188C19.3229 4.17188 20.5417 5.34375 20.5417 6.79688C20.5417 8.20312 19.3229 9.42188 17.9167 9.42188C16.4635 9.42188 15.2917 8.20312 15.2917 6.79688C15.2917 5.34375 16.4635 4.17188 17.9167 4.17188ZM17.9167 7.92188C18.526 7.92188 19.0417 7.40625 19.0417 6.79688C19.0417 6.14062 18.526 5.67188 17.9167 5.67188C17.2604 5.67188 16.7917 6.14062 16.7917 6.79688C16.7917 7.40625 17.2604 7.92188 17.9167 7.92188ZM24.3385 0.9375C24.6667 2.4375 24.6667 3.60938 24.6198 4.78125C24.6198 9.60938 22.0417 12.5156 18.6667 14.6719V19.5938C18.6667 20.3438 18.1042 21.2344 17.401 21.6094L12.7604 23.9062C12.6667 23.9531 12.4323 24 12.2917 24C11.6354 24 11.1667 23.5312 11.1667 22.875V18C11.1667 15.5156 9.15103 13.5 6.66666 13.5H1.79166C1.13541 13.5 0.666656 13.0312 0.666656 12.375C0.666656 12.2344 0.713531 12.0469 0.760406 11.9062L3.10416 7.26562C3.43228 6.5625 4.32291 6 5.11978 6H9.99478C12.151 2.625 15.0573 0 19.8854 0C21.0573 0 22.2292 0 23.7292 0.328125C24.0104 0.421875 24.2448 0.65625 24.3385 0.9375ZM2.40103 12C3.52603 12 6.80728 12.0469 6.85416 12.0469V12C7.60416 10.5 8.44791 8.85938 9.10416 7.5H5.11978C4.88541 7.5 4.51041 7.78125 4.41666 7.92188L2.40103 12ZM17.1667 19.5938V15.5625H17.1198C15.8073 16.2188 14.1667 17.0625 12.6667 17.8125H12.6198C12.6198 17.8594 12.6667 21.1875 12.6667 22.3125L16.7448 20.25C16.8854 20.1562 17.1667 19.7812 17.1667 19.5938ZM12.3385 16.2656C17.2135 13.875 23.1198 11.5781 23.1198 4.78125C23.1667 3.79688 23.1667 2.85938 22.9323 1.73438C21.8073 1.5 20.8698 1.5 19.8854 1.5C13.0885 1.5 10.8385 7.45312 8.40103 12.3281C10.0885 12.8438 11.8229 14.5781 12.3385 16.2656ZM5.44791 15C6.61978 15 7.69791 15.5156 8.40103 16.2188C10.7917 18.6094 10.1823 23.8594 2.16666 24H0.666656V22.5C0.760406 16.875 3.19791 15 5.44791 15ZM7.93228 20.1562C8.35416 19.0781 7.97916 17.8594 7.36978 17.2969C6.90103 16.8281 6.15103 16.5469 5.44791 16.5469C2.07291 16.5469 2.16666 22.3594 2.11978 22.5C5.21353 22.4531 7.32291 21.6094 7.93228 20.1562Z" fill="#00A894"/>
</svg>
