<svg width="24" height="24" viewBox="0 0 24 24" fill="none" xmlns="http://www.w3.org/2000/svg">
<path d="M12.3334 0.375C18.7552 0.375 23.9584 5.57812 23.9584 12C23.9584 18.4219 18.7552 23.625 12.3334 23.625C5.9115 23.625 0.708374 18.4219 0.708374 12C0.708374 5.57812 5.9115 0.375 12.3334 0.375ZM22.4584 12C22.4584 6.42188 17.8646 1.875 12.3334 1.875C6.70837 1.875 2.20837 6.46875 2.20837 12C2.20837 17.625 6.75525 22.125 12.3334 22.125C17.9115 22.125 22.4584 17.5781 22.4584 12ZM15.474 16.1719L11.6302 13.4062C11.4896 13.2656 11.4427 13.125 11.4427 12.9375V5.4375C11.4427 5.15625 11.6771 4.875 12.0052 4.875H12.6615C12.9427 4.875 13.224 5.15625 13.224 5.4375V12.3281L16.5052 14.7188C16.7396 14.9062 16.8334 15.2344 16.6459 15.5156L16.224 16.0312C16.0834 16.2656 15.7084 16.3594 15.474 16.1719Z" fill="#00A894"/>
</svg>
