<svg width="22" height="24" viewBox="0 0 22 24" fill="none" xmlns="http://www.w3.org/2000/svg">
<path d="M10.8334 1.5C5.86462 1.5 1.83337 2.85938 1.83337 4.5V6C1.83337 7.6875 5.86462 9 10.8334 9C15.8021 9 19.8334 7.6875 19.8334 6V4.5C19.8334 2.85938 15.8021 1.5 10.8334 1.5ZM19.8334 8.53125C17.8646 9.89062 14.349 10.5 10.8334 10.5C7.27087 10.5 3.75525 9.89062 1.83337 8.53125V10.5C1.83337 12.1875 5.86462 13.5 10.8334 13.5C15.8021 13.5 19.8334 12.1875 19.8334 10.5V8.53125ZM19.8334 13.0312C17.8646 14.3906 14.349 15 10.8334 15C7.27087 15 3.75525 14.3906 1.83337 13.0312V15C1.83337 16.6875 5.86462 18 10.8334 18C15.8021 18 19.8334 16.6875 19.8334 15V13.0312ZM19.8334 17.5312C17.8646 18.8906 14.349 19.5 10.8334 19.5C7.27087 19.5 3.75525 18.8906 1.83337 17.5312V19.5C1.83337 21.1875 5.86462 22.5 10.8334 22.5C15.8021 22.5 19.8334 21.1875 19.8334 19.5V17.5312ZM10.8334 0C14.4427 0 21.3334 0.890625 21.3334 4.5V19.5C21.3334 23.1562 14.4896 24 10.8334 24C7.17712 24 0.333374 23.1562 0.333374 19.5V4.5C0.333374 0.890625 7.13025 0 10.8334 0Z" fill="#00A894"/>
</svg>
