<svg width="128" height="136" viewBox="0 0 128 136" fill="none" xmlns="http://www.w3.org/2000/svg">
<g filter="url(#filter0_d_601_599)">
<circle cx="64" cy="64" r="48" fill="#00D7B0"/>
</g>
<path d="M71.2188 61.1875L73.375 63.4375C73.75 63.8125 73.75 64.375 73.375 64.75L62.2188 75.8125C61.9375 76.0938 61.2812 76.0938 60.9062 75.7188L54.5312 69.25C54.1562 68.875 54.1562 68.3125 54.5312 67.9375L56.7812 65.7812C57.0625 65.4062 57.7188 65.4062 58.0938 65.7812L61.6562 69.3438L69.9062 61.1875C70.2812 60.8125 70.8438 60.8125 71.2188 61.1875ZM77.5 46C79.9375 46 82 48.0625 82 50.5V83.5C82 86.0312 79.9375 88 77.5 88H50.5C47.9688 88 46 86.0312 46 83.5V50.5C46 48.0625 47.9688 46 50.5 46H58C58 42.7188 60.625 40 64 40C67.2812 40 70 42.7188 70 46H77.5ZM64 44.5C63.1562 44.5 62.5 45.25 62.5 46C62.5 46.8438 63.1562 47.5 64 47.5C64.75 47.5 65.5 46.8438 65.5 46C65.5 45.25 64.75 44.5 64 44.5ZM77.5 82.75V51.25C77.5 50.875 77.125 50.5 76.75 50.5H73V53.5C73 54.3438 72.25 55 71.5 55H56.5C55.6562 55 55 54.3438 55 53.5V50.5H51.25C50.7812 50.5 50.5 50.875 50.5 51.25V82.75C50.5 83.2188 50.7812 83.5 51.25 83.5H76.75C77.125 83.5 77.5 83.2188 77.5 82.75Z" fill="#1F1F1F"/>
<rect x="65" y="136" width="2" height="24" transform="rotate(-180 65 136)" fill="url(#paint0_linear_601_599)"/>
<defs>
<filter id="filter0_d_601_599" x="0" y="0" width="128" height="128" filterUnits="userSpaceOnUse" color-interpolation-filters="sRGB">
<feFlood flood-opacity="0" result="BackgroundImageFix"/>
<feColorMatrix in="SourceAlpha" type="matrix" values="0 0 0 0 0 0 0 0 0 0 0 0 0 0 0 0 0 0 127 0" result="hardAlpha"/>
<feOffset/>
<feGaussianBlur stdDeviation="8"/>
<feComposite in2="hardAlpha" operator="out"/>
<feColorMatrix type="matrix" values="0 0 0 0 0 0 0 0 0 0.843137 0 0 0 0 0.690196 0 0 0 0.5 0"/>
<feBlend mode="normal" in2="BackgroundImageFix" result="effect1_dropShadow_601_599"/>
<feBlend mode="normal" in="SourceGraphic" in2="effect1_dropShadow_601_599" result="shape"/>
</filter>
<linearGradient id="paint0_linear_601_599" x1="66" y1="136" x2="66" y2="160" gradientUnits="userSpaceOnUse">
<stop stop-color="#00D7B0" stop-opacity="0"/>
<stop offset="1" stop-color="#00D7B0"/>
</linearGradient>
</defs>
</svg>
