<svg width="128" height="136" viewBox="0 0 128 136" fill="none" xmlns="http://www.w3.org/2000/svg">
<g filter="url(#filter0_d_601_551)">
<circle cx="64" cy="64" r="48" fill="#00D7B0"/>
</g>
<path d="M84.7188 40C86.5 40 88 41.5 88 43.2812V84.8125C88 86.5938 86.5 88 84.7188 88H43.1875C41.4062 88 40 86.5938 40 84.8125V43.2812C40 41.5 41.4062 40 43.1875 40H84.7188ZM61.75 83.5V66.25H44.5V83.5H61.75ZM61.75 61.75V44.5H44.5V61.75H61.75ZM83.5 83.5V66.25H66.25V83.5H83.5ZM83.5 61.75V44.5H66.25V61.75H83.5ZM49.75 55C49.2812 55 49 54.7188 49 54.25V52.75C49 52.375 49.2812 52 49.75 52H57.25C57.625 52 58 52.375 58 52.75V54.25C58 54.7188 57.625 55 57.25 55H49.75ZM70.75 78.25C70.2812 78.25 70 77.9688 70 77.5V76C70 75.625 70.2812 75.25 70.75 75.25H78.25C78.625 75.25 79 75.625 79 76V77.5C79 77.9688 78.625 78.25 78.25 78.25H70.75ZM70.75 73.75C70.2812 73.75 70 73.4688 70 73V71.5C70 71.125 70.2812 70.75 70.75 70.75H78.25C78.625 70.75 79 71.125 79 71.5V73C79 73.4688 78.625 73.75 78.25 73.75H70.75ZM70.75 55C70.2812 55 70 54.7188 70 54.25V52.75C70 52.375 70.2812 52 70.75 52H73V49.75C73 49.375 73.2812 49 73.75 49H75.25C75.625 49 76 49.375 76 49.75V52H78.25C78.625 52 79 52.375 79 52.75V54.25C79 54.7188 78.625 55 78.25 55H76V57.25C76 57.7188 75.625 58 75.25 58H73.75C73.2812 58 73 57.7188 73 57.25V55H70.75ZM49.75 77.2188C49.4688 76.9375 49.4688 76.4688 49.75 76.0938L51.3438 74.5L49.75 73C49.4688 72.625 49.4688 72.1562 49.75 71.875L50.7812 70.8438C51.0625 70.5625 51.5312 70.5625 51.9062 70.8438L53.5 72.4375L55 70.8438C55.375 70.5625 55.8438 70.5625 56.125 70.8438L57.1562 71.875C57.4375 72.1562 57.4375 72.625 57.1562 73L55.5625 74.5L57.1562 76.0938C57.4375 76.4688 57.4375 76.9375 57.1562 77.2188L56.125 78.25C55.8438 78.5312 55.375 78.5312 55 78.25L53.5 76.6562L51.9062 78.25C51.5312 78.5312 51.0625 78.5312 50.7812 78.25L49.75 77.2188Z" fill="#1F1F1F"/>
<rect x="65" y="136" width="2" height="24" transform="rotate(-180 65 136)" fill="url(#paint0_linear_601_551)"/>
<defs>
<filter id="filter0_d_601_551" x="0" y="0" width="128" height="128" filterUnits="userSpaceOnUse" color-interpolation-filters="sRGB">
<feFlood flood-opacity="0" result="BackgroundImageFix"/>
<feColorMatrix in="SourceAlpha" type="matrix" values="0 0 0 0 0 0 0 0 0 0 0 0 0 0 0 0 0 0 127 0" result="hardAlpha"/>
<feOffset/>
<feGaussianBlur stdDeviation="8"/>
<feComposite in2="hardAlpha" operator="out"/>
<feColorMatrix type="matrix" values="0 0 0 0 0 0 0 0 0 0.843137 0 0 0 0 0.690196 0 0 0 0.5 0"/>
<feBlend mode="normal" in2="BackgroundImageFix" result="effect1_dropShadow_601_551"/>
<feBlend mode="normal" in="SourceGraphic" in2="effect1_dropShadow_601_551" result="shape"/>
</filter>
<linearGradient id="paint0_linear_601_551" x1="66" y1="136" x2="66" y2="160" gradientUnits="userSpaceOnUse">
<stop stop-color="#00D7B0" stop-opacity="0"/>
<stop offset="1" stop-color="#00D7B0"/>
</linearGradient>
</defs>
</svg>
