<svg width="96" height="120" viewBox="0 0 96 120" fill="none" xmlns="http://www.w3.org/2000/svg">
<circle cx="48" cy="48" r="48" fill="#6F6F6F"/>
<path d="M66.75 44.1562C69.6562 45.9375 69.6562 50.1562 66.75 51.9375L33.75 71.4375C30.75 73.2188 27 71.0625 27 67.5V28.5C27 24.6562 31.0312 23.0625 33.75 24.6562L66.75 44.1562ZM31.5 66.5625C31.5 67.0312 31.9688 67.2188 32.3438 67.0312L63.6562 48.5625C64.0312 48.2812 64.0312 47.8125 63.6562 47.5312L32.3438 29.0625C31.9688 28.7812 31.5 29.0625 31.5 29.5312V66.5625Z" fill="#272727"/>
<rect x="49" y="120" width="2" height="24" transform="rotate(-180 49 120)" fill="url(#paint0_linear_601_405)"/>
<defs>
<linearGradient id="paint0_linear_601_405" x1="50" y1="120" x2="50" y2="144" gradientUnits="userSpaceOnUse">
<stop stop-color="#6E6E6E" stop-opacity="0"/>
<stop offset="1" stop-color="#6E6E6E"/>
</linearGradient>
</defs>
</svg>
