<svg width="156" height="156" viewBox="0 0 156 156" fill="none" xmlns="http://www.w3.org/2000/svg">
<g filter="url(#filter0_d_601_565)">
<circle cx="78" cy="78" r="52" fill="#1F1F1F"/>
<circle cx="78" cy="78" r="53" stroke="#00D7B0" stroke-width="2"/>
</g>
<g filter="url(#filter1_d_601_565)">
<circle cx="78" cy="78" r="48" fill="#00D7B0"/>
</g>
<path d="M86.25 76.5C86.625 76.5 87 76.875 87 77.25V78.75C87 79.2188 86.625 79.5 86.25 79.5H75.75C75.2812 79.5 75 79.2188 75 78.75V77.25C75 76.875 75.2812 76.5 75.75 76.5H86.25ZM86.25 85.5C86.625 85.5 87 85.875 87 86.25V87.75C87 88.2188 86.625 88.5 86.25 88.5H75.75C75.2812 88.5 75 88.2188 75 87.75V86.25C75 85.875 75.2812 85.5 75.75 85.5H86.25ZM70.5 75.75C71.7188 75.75 72.75 76.7812 72.75 78C72.75 79.3125 71.7188 80.25 70.5 80.25C69.1875 80.25 68.25 79.3125 68.25 78C68.25 76.7812 69.1875 75.75 70.5 75.75ZM70.5 84.75C71.7188 84.75 72.75 85.7812 72.75 87C72.75 88.3125 71.7188 89.25 70.5 89.25C69.1875 89.25 68.25 88.3125 68.25 87C68.25 85.7812 69.1875 84.75 70.5 84.75ZM91.5 60C93.9375 60 96 62.0625 96 64.5V97.5C96 100.031 93.9375 102 91.5 102H64.5C61.9688 102 60 100.031 60 97.5V64.5C60 62.0625 61.9688 60 64.5 60H72C72 56.7188 74.625 54 78 54C81.2812 54 84 56.7188 84 60H91.5ZM78 58.5C77.1562 58.5 76.5 59.25 76.5 60C76.5 60.8438 77.1562 61.5 78 61.5C78.75 61.5 79.5 60.8438 79.5 60C79.5 59.25 78.75 58.5 78 58.5ZM91.5 96.75V65.25C91.5 64.875 91.125 64.5 90.75 64.5H87V67.5C87 68.3438 86.25 69 85.5 69H70.5C69.6562 69 69 68.3438 69 67.5V64.5H65.25C64.7812 64.5 64.5 64.875 64.5 65.25V96.75C64.5 97.2188 64.7812 97.5 65.25 97.5H90.75C91.125 97.5 91.5 97.2188 91.5 96.75Z" fill="#1F1F1F"/>
<rect x="79" y="150" width="2" height="24" transform="rotate(-180 79 150)" fill="url(#paint0_linear_601_565)"/>
<rect x="77" y="6" width="2" height="24" fill="url(#paint1_linear_601_565)"/>
<defs>
<filter id="filter0_d_601_565" x="0" y="0" width="156" height="156" filterUnits="userSpaceOnUse" color-interpolation-filters="sRGB">
<feFlood flood-opacity="0" result="BackgroundImageFix"/>
<feColorMatrix in="SourceAlpha" type="matrix" values="0 0 0 0 0 0 0 0 0 0 0 0 0 0 0 0 0 0 127 0" result="hardAlpha"/>
<feOffset/>
<feGaussianBlur stdDeviation="12"/>
<feComposite in2="hardAlpha" operator="out"/>
<feColorMatrix type="matrix" values="0 0 0 0 0 0 0 0 0 0.843137 0 0 0 0 0.690196 0 0 0 0.5 0"/>
<feBlend mode="normal" in2="BackgroundImageFix" result="effect1_dropShadow_601_565"/>
<feBlend mode="normal" in="SourceGraphic" in2="effect1_dropShadow_601_565" result="shape"/>
</filter>
<filter id="filter1_d_601_565" x="14" y="14" width="128" height="128" filterUnits="userSpaceOnUse" color-interpolation-filters="sRGB">
<feFlood flood-opacity="0" result="BackgroundImageFix"/>
<feColorMatrix in="SourceAlpha" type="matrix" values="0 0 0 0 0 0 0 0 0 0 0 0 0 0 0 0 0 0 127 0" result="hardAlpha"/>
<feOffset/>
<feGaussianBlur stdDeviation="8"/>
<feComposite in2="hardAlpha" operator="out"/>
<feColorMatrix type="matrix" values="0 0 0 0 0 0 0 0 0 0.843137 0 0 0 0 0.690196 0 0 0 0.5 0"/>
<feBlend mode="normal" in2="BackgroundImageFix" result="effect1_dropShadow_601_565"/>
<feBlend mode="normal" in="SourceGraphic" in2="effect1_dropShadow_601_565" result="shape"/>
</filter>
<linearGradient id="paint0_linear_601_565" x1="80" y1="150" x2="80" y2="174" gradientUnits="userSpaceOnUse">
<stop stop-color="#00D7B0" stop-opacity="0"/>
<stop offset="1" stop-color="#00D7B0"/>
</linearGradient>
<linearGradient id="paint1_linear_601_565" x1="78" y1="6" x2="78" y2="30" gradientUnits="userSpaceOnUse">
<stop stop-color="#00D7B0" stop-opacity="0"/>
<stop offset="1" stop-color="#00D7B0"/>
</linearGradient>
</defs>
</svg>
