<svg width="96" height="120" viewBox="0 0 96 120" fill="none" xmlns="http://www.w3.org/2000/svg">
<circle cx="48" cy="48" r="48" fill="#6F6F6F"/>
<path d="M56.3438 52.5C63.2812 52.5 69 58.2188 69 65.1562V67.5C69 70.0312 66.9375 72 64.5 72H31.5C28.9688 72 27 70.0312 27 67.5V65.1562C27 58.2188 32.625 52.5 39.5625 52.5C42.2812 52.5 43.5 54 48 54C52.4062 54 53.625 52.5 56.3438 52.5ZM64.5 67.5V65.1562C64.5 60.6562 60.8438 57 56.3438 57C54.9375 57 52.7812 58.5 48 58.5C43.125 58.5 40.9688 57 39.5625 57C35.0625 57 31.5 60.6562 31.5 65.1562V67.5H64.5ZM48 51C40.5 51 34.5 45 34.5 37.5C34.5 30.0938 40.5 24 48 24C55.4062 24 61.5 30.0938 61.5 37.5C61.5 45 55.4062 51 48 51ZM48 28.5C43.0312 28.5 39 32.625 39 37.5C39 42.4688 43.0312 46.5 48 46.5C52.875 46.5 57 42.4688 57 37.5C57 32.625 52.875 28.5 48 28.5Z" fill="#272727"/>
<rect x="49" y="120" width="2" height="24" transform="rotate(-180 49 120)" fill="url(#paint0_linear_601_574)"/>
<defs>
<linearGradient id="paint0_linear_601_574" x1="50" y1="120" x2="50" y2="144" gradientUnits="userSpaceOnUse">
<stop stop-color="#6E6E6E" stop-opacity="0"/>
<stop offset="1" stop-color="#6E6E6E"/>
</linearGradient>
</defs>
</svg>
