<svg width="128" height="137" viewBox="0 0 128 137" fill="none" xmlns="http://www.w3.org/2000/svg">
<g filter="url(#filter0_d_601_1500)">
<circle cx="64" cy="64.5" r="48" fill="#00D7B0"/>
</g>
<path d="M57.9062 57.6562C57.0625 58.5 56.9688 59.9062 57.8125 60.8438C58.6562 61.7812 60.1562 61.6875 61.0938 60.8438L66.25 56.1562C66.8125 55.5938 67.8438 55.5938 68.4062 56.25L69.3438 57.2812C69.9062 57.9375 69.9062 58.875 69.25 59.4375L68.125 60.4688L77.7812 68.3438C77.9688 68.5312 78.25 68.8125 78.4375 69H92.5C93.25 69 94 69.75 94 70.5V72C94 72.8438 93.25 73.5 92.5 73.5H79.5625C79.375 74.3438 79 75.0938 78.5312 75.6562L76.0938 78.75C74.5938 80.5312 72.1562 81.0938 70.0938 80.3438C68.7812 81.8438 67.1875 82.5938 65.5 82.5938C64.0938 82.5938 62.7812 82.0312 61.6562 81.0938C58.6562 83.1562 54.625 83.0625 51.7188 80.7188L43.8438 73.5H35.5C34.6562 73.5 34 72.8438 34 72V70.5C34 69.75 34.6562 69 35.5 69H45.5312L54.7188 77.25C56.2188 78.5625 58.5625 78.2812 59.875 76.6875L61.2812 74.9062L64.75 77.8125C64.9375 78 65.3125 78.0938 65.5938 78.0938C65.9688 78 66.25 77.8125 66.4375 77.625L69.25 74.1562L71.5 76.0312C71.875 76.2188 72.3438 76.2188 72.5312 75.8438L75.0625 72.8438C75.25 72.5625 75.25 72.0938 74.875 71.8125L64.75 63.5625L64 64.3125C60.25 67.6875 55.8438 65.3438 54.4375 63.8438C52 61.125 52.0938 56.9062 54.9062 54.375L58.5625 51H53.2188C53.0312 51.0938 52.8438 51.1875 52.6562 51.2812L46.8438 57H35.5C34.6562 57 34 56.3438 34 55.5V54C34 53.25 34.6562 52.5 35.5 52.5H45.0625L49.4688 48.0938C50.5 47.0625 51.8125 46.5 53.2188 46.5H74.5C75.8125 46.5 77.2188 47.0625 78.1562 48.0938L82.6562 52.5H92.5C93.25 52.5 94 53.1562 94 54V55.5C94 56.3438 93.25 57 92.5 57H80.7812L74.9688 51.2812C74.875 51.0938 74.6875 51 74.5 51L66.625 51.0938C65.6875 51.0938 64.75 51.375 64.0938 52.0312L57.9062 57.6562Z" fill="#1F1F1F"/>
<rect x="65" y="136.5" width="2" height="24" transform="rotate(-180 65 136.5)" fill="url(#paint0_linear_601_1500)"/>
<defs>
<filter id="filter0_d_601_1500" x="0" y="0.5" width="128" height="128" filterUnits="userSpaceOnUse" color-interpolation-filters="sRGB">
<feFlood flood-opacity="0" result="BackgroundImageFix"/>
<feColorMatrix in="SourceAlpha" type="matrix" values="0 0 0 0 0 0 0 0 0 0 0 0 0 0 0 0 0 0 127 0" result="hardAlpha"/>
<feOffset/>
<feGaussianBlur stdDeviation="8"/>
<feComposite in2="hardAlpha" operator="out"/>
<feColorMatrix type="matrix" values="0 0 0 0 0 0 0 0 0 0.843137 0 0 0 0 0.690196 0 0 0 0.5 0"/>
<feBlend mode="normal" in2="BackgroundImageFix" result="effect1_dropShadow_601_1500"/>
<feBlend mode="normal" in="SourceGraphic" in2="effect1_dropShadow_601_1500" result="shape"/>
</filter>
<linearGradient id="paint0_linear_601_1500" x1="66" y1="136.5" x2="66" y2="160.5" gradientUnits="userSpaceOnUse">
<stop stop-color="#00D7B0" stop-opacity="0"/>
<stop offset="1" stop-color="#00D7B0"/>
</linearGradient>
</defs>
</svg>
