<svg width="320" height="320" viewBox="0 0 320 320" fill="none" xmlns="http://www.w3.org/2000/svg">
<path d="M251.938 73.75L160 40.8125L81.5 68.9375V67.25C81.5 65.6875 80.25 64.4375 78.6875 64.4375C77.125 64.4375 75.875 65.6875 75.875 67.25V70.9375L68.125 73.6875C66 74.4375 66.0625 77.5 68.25 78.1875L75.875 80.4375V89.375C75.875 90.9375 77.125 92.1875 78.6875 92.1875C80.25 92.1875 81.5 90.9375 81.5 89.375V82.125L112.563 91.1875V102.437L113.688 102.688C109.562 103.625 106.5 107.25 106.5 111.562V114.125C106 113.938 105.5 113.812 104.938 113.812H100.875C98.4375 113.812 96.5 115.812 96.5 118.188V152.5C96.5 154.938 98.5 156.875 100.875 156.875H104.938C105.5 156.875 106 156.75 106.5 156.562V159.937C106.5 174.062 134.062 178 149.625 179.125C148.5 179.25 147.375 179.375 146.313 179.562H134.625C128.688 179.562 123.813 183.812 122.688 189.375C122.5 182.812 118.438 178.625 111.5 176.5C102.5 173.75 92.6875 179.875 89.5625 190.125C86.625 199.75 90.4375 201.062 96 201.75C91.5 206.625 88.0625 216.125 86.8125 222C84.9375 230.5 89.625 238.812 97.25 240.5C104.875 242.188 113 236.688 114.5 228.125C116.188 218.375 113.625 209.063 109.375 203.563C115 203.813 119.875 202.5 121.812 195.75C122.125 194.688 122.312 193.687 122.5 192.687V215.625C122.5 224.5 126.063 232.5 131.75 238.375C126.438 238.937 122.188 242.125 121.188 246.25C116.125 249.062 112.813 254.5 111.75 263.062C109.438 280.5 118.875 280.812 129.375 280.812C149.75 280.812 151.063 276.562 149.75 262.437C149.375 258.312 147.875 254.438 145.438 251.312C145.875 250.312 146.062 249.25 146.062 248.188C146.062 247.75 146 247.312 145.938 246.875C148.875 247.75 151.938 248.188 155.125 248.188H165C168.188 248.188 171.25 247.75 174.188 246.875C174.125 247.312 174.062 247.75 174.062 248.188C174.062 249.312 174.312 250.312 174.688 251.312C172.312 254.438 170.75 258.25 170.375 262.437C169.063 276.562 170.375 280.812 190.75 280.812C201.25 280.812 210.625 280.5 208.375 263.062C207.25 254.562 204 249.062 198.938 246.25C197.938 242.125 193.688 238.937 188.375 238.375C194.125 232.5 197.625 224.438 197.625 215.625V192.687C197.75 193.687 198 194.688 198.312 195.75C200.188 202.5 205.125 203.875 210.75 203.563C206.5 209 203.938 218.375 205.625 228.125C207.062 236.75 215.188 242.188 222.875 240.5C230.5 238.812 235.188 230.563 233.312 222C232 216.125 228.625 206.562 224.125 201.75C229.688 201 233.5 199.75 230.562 190.125C227.438 179.875 217.625 173.75 208.625 176.5C201.688 178.625 197.562 182.812 197.438 189.375C196.375 183.812 191.437 179.562 185.5 179.562H173.813C172.75 179.375 171.687 179.25 170.5 179.125C186.062 178 213.625 174.062 213.625 159.937V156.5C214.125 156.687 214.688 156.812 215.25 156.812H219.312C221.75 156.812 223.688 154.812 223.688 152.437V118.188C223.688 115.75 221.688 113.812 219.312 113.812H215.25C214.688 113.812 214.125 113.938 213.625 114.125V111.562C213.625 107.25 210.562 103.688 206.438 102.688L207.562 102.437V91.1875L251.938 78.1875C254 77.625 254.063 74.5625 251.938 73.75Z" fill="#1C1C1C"/>
<path d="M88.25 160.25C88.25 154.25 86.8125 119.75 86.125 114.625C85.4375 109.5 83.4375 106.5 82.0625 105.937C82.0625 105.937 87 101 85.5625 96.0622C84.4375 92.2497 81.5 92.1872 78.625 92.2497C75.75 92.1872 72.8125 92.2497 71.6875 96.0622C70.25 101 75.1875 105.937 75.1875 105.937C73.8125 106.5 71.75 109.5 71.125 114.625C70.5 119.75 69 154.25 69 160.25C69 166.25 72.3125 167.187 76.4375 167.187H80.6875C84.9375 167.187 88.25 166.25 88.25 160.25Z" fill="#1C1C1C"/>
<path d="M191.812 123.188C199.625 128 203.875 134.312 203.875 140.875C203.875 147.5 199.5 153.875 191.5 158.75C183.125 163.875 171.938 166.688 160.062 166.688C148.188 166.688 137 163.875 128.625 158.75C120.625 153.875 116.25 147.562 116.25 140.875C116.25 134.25 120.5 128 128.312 123.188C137.938 125.688 148.875 127 160.125 127C171.188 127 182.187 125.688 191.812 123.188ZM192.188 120.5L191.688 120.625C182.188 123.125 171.25 124.5 160 124.5C148.75 124.5 137.875 123.187 128.312 120.625L127.812 120.5L127.375 120.75C118.5 126.062 113.625 133.25 113.625 140.875C113.625 156.437 134.437 169.125 160 169.125C185.562 169.125 206.375 156.437 206.375 140.875C206.375 133.25 201.5 126.062 192.625 120.75L192.188 120.5Z" fill="#00D7B0"/>
<path d="M252.375 72.5625L160 39.5L82.6875 67.1875C82.625 65 80.8125 63.25 78.625 63.25C76.375 63.25 74.5625 65.0625 74.5625 67.3125V70.125L67.625 72.625C66.125 73.1875 65.1875 74.5625 65.25 76.125C65.3125 77.6875 66.3125 79 67.8125 79.5L74.5625 81.5V89.375C74.5625 90.0625 74.75 90.6875 75 91.1875C73.125 91.625 71.3125 92.75 70.5 95.625C69.3125 99.8125 71.875 103.813 73.375 105.688C71.875 107.188 70.4375 110.125 69.875 114.375C69.25 119.625 67.75 154.063 67.75 160.125C67.75 167.375 72.375 168.312 76.4375 168.312H80.6875C84.75 168.312 89.375 167.375 89.375 160.125C89.375 154.063 87.9375 119.562 87.25 114.375C86.75 110.125 85.25 107.188 83.75 105.688C85.25 103.813 87.875 99.8125 86.625 95.625C85.8125 92.75 84 91.625 82.125 91.1875C82.4375 90.625 82.5625 90 82.5625 89.375V83.75L111.125 92.125V102.25C107.563 103.938 105.063 107.5 105.063 111.625V112.688C104.938 112.688 104.875 112.688 104.75 112.688H100.688C97.5625 112.688 95.0625 115.25 95.0625 118.312V152.5C95.0625 155.625 97.625 158.125 100.688 158.125H104.75C104.875 158.125 104.938 158.125 105.063 158.125V160C105.063 168.875 114.438 175.062 132.813 178.438C132.875 178.438 132.938 178.438 133.063 178.5C132.938 178.5 132.75 178.563 132.625 178.563C132.375 178.625 132.188 178.625 131.938 178.688C131.688 178.75 131.5 178.812 131.25 178.812C131.063 178.875 130.875 178.875 130.75 178.938C130.5 179 130.313 179.063 130.063 179.188C129.938 179.25 129.75 179.312 129.625 179.375C129.375 179.438 129.188 179.562 128.938 179.688C128.813 179.75 128.625 179.812 128.5 179.875C128.25 180 128.063 180.125 127.813 180.25C127.688 180.312 127.563 180.438 127.375 180.5C127.188 180.625 126.938 180.75 126.75 180.938C126.625 181 126.5 181.125 126.375 181.25C126.188 181.375 126 181.563 125.813 181.688L125.75 181.75L124.75 182.625L124.813 182.688C124.125 183.375 123.563 184.188 123.063 185C121.5 180.562 117.688 177.375 111.75 175.562C107.063 174.125 102 174.875 97.5625 177.625C93.1875 180.375 89.875 184.75 88.3125 190C86.9375 194.625 86.9375 197.75 88.3125 199.875C89.5 201.625 91.5 202.438 93.625 202.875C92.9375 203.812 92.1875 204.937 91.4375 206.187C88.4375 211.437 86.375 218 85.5 221.938C84.5 226.375 85.1875 230.875 87.3125 234.625C89.4375 238.437 92.875 241 96.9375 241.875C97.9375 242.062 98.9375 242.188 100 242.188C103 242.188 106 241.25 108.625 239.5C112.375 237 114.938 232.937 115.75 228.438C117.313 219.187 115.375 210.687 111.813 204.937C115.563 204.75 119 203.562 121.25 200.187V215.75C121.25 224.125 124.313 231.75 129.375 237.687C124.875 238.875 121.313 241.875 120.125 245.625C114.875 248.75 111.563 254.625 110.5 263.062C109.563 270.062 110.438 274.937 113.125 278C116.875 282.25 123.5 282.25 129.375 282.25C140.438 282.25 145.813 281 148.75 277.812C151.813 274.437 151.625 269.125 151 262.5C150.625 258.187 149.125 254.375 146.875 251.25C147.125 250.438 147.313 249.562 147.313 248.687C149.813 249.312 152.438 249.625 155.125 249.625H165C167.688 249.625 170.313 249.312 172.813 248.687C172.875 249.562 173 250.438 173.25 251.25C171 254.375 169.5 258.187 169.125 262.5C168.5 269.125 168.313 274.437 171.375 277.812C174.25 281 179.688 282.25 190.75 282.25C196.625 282.25 203.25 282.25 207 278C209.688 274.937 210.562 270.062 209.625 263.062C208.5 254.625 205.25 248.75 200 245.625C198.813 241.875 195.313 238.875 190.75 237.687C195.813 231.75 198.875 224.125 198.875 215.75V200.187C201.125 203.562 204.562 204.687 208.312 204.937C204.75 210.687 202.75 219.25 204.375 228.438C205.125 232.937 207.75 237 211.5 239.5C214.125 241.25 217.125 242.188 220.125 242.188C221.125 242.188 222.188 242.062 223.188 241.875C227.25 241 230.688 238.375 232.813 234.625C234.938 230.875 235.562 226.375 234.625 221.938C233.75 217.938 231.688 211.437 228.688 206.187C227.938 204.875 227.25 203.812 226.5 202.875C228.688 202.438 230.688 201.625 231.812 199.875C233.188 197.75 233.188 194.625 231.812 190C230.25 184.75 226.938 180.375 222.563 177.625C218.125 174.875 213.062 174.125 208.375 175.562C202.375 177.375 198.562 180.562 197.062 185C196.562 184.188 196 183.375 195.313 182.688L195.375 182.625L194.375 181.75L194.312 181.688C194.125 181.5 193.938 181.375 193.75 181.25C193.625 181.125 193.5 181.062 193.375 180.938C193.188 180.812 192.938 180.688 192.75 180.562C192.625 180.5 192.5 180.375 192.313 180.312C192.125 180.188 191.875 180.062 191.625 179.938C191.5 179.875 191.313 179.812 191.188 179.75C190.938 179.625 190.75 179.562 190.5 179.438C190.375 179.375 190.188 179.312 190.063 179.25C189.813 179.188 189.625 179.062 189.375 179C189.188 178.938 189 178.938 188.813 178.875C188.625 178.813 188.375 178.75 188.125 178.75C187.875 178.688 187.688 178.688 187.438 178.625C187.313 178.625 187.125 178.563 187 178.563C187.063 178.563 187.125 178.562 187.25 178.5C205.688 175.125 215 168.938 215 160.063V158.188C215.125 158.188 215.25 158.188 215.375 158.188H219.438C222.563 158.188 225.063 155.625 225.063 152.563V118.312C225.063 115.188 222.5 112.688 219.438 112.688H215.375C215.25 112.688 215.125 112.688 215 112.688V111.625C215 107.5 212.5 103.938 208.938 102.25V92.125L252.375 79.4375C253.875 79 254.938 77.6875 254.938 76.0625C254.75 74.5 253.875 73.125 252.375 72.5625ZM74.625 78.8125L68.625 77.0625C67.9375 76.875 67.8125 76.25 67.8125 76.0625C67.8125 75.875 67.8125 75.25 68.5625 75L74.625 72.8125V78.8125ZM77.125 67.3125C77.125 66.4375 77.8125 65.75 78.6875 65.75C79.5625 65.75 80.25 66.4375 80.25 67.3125V89.375C80.25 90.25 79.5625 90.9375 78.6875 90.9375C77.8125 90.9375 77.125 90.25 77.125 89.375V67.3125ZM84.4375 96.375C85.625 100.562 81.25 105 81.25 105.063L79.9375 106.375L81.6875 107.062C82.5625 107.438 84.375 110.063 85 114.75C85.625 119.938 87.0625 154.187 87.0625 160.187C87.0625 165 84.875 165.875 80.875 165.875H76.625C72.625 165.875 70.4375 164.937 70.4375 160.187C70.4375 154.187 71.875 119.875 72.5 114.75C73.0625 110.063 74.9375 107.438 75.8125 107.062L77.5625 106.375L76.25 105.063C76.1875 105 71.8125 100.562 73.0625 96.375C73.8125 93.75 75.5 93.4375 78.1875 93.4375C78.375 93.4375 78.625 93.4375 78.8125 93.4375C81.6875 93.4375 83.5625 93.5625 84.4375 96.375ZM104.938 155.688H100.875C99.125 155.688 97.75 154.25 97.75 152.563V118.312C97.75 116.563 99.1875 115.188 100.875 115.188H104.938C106.688 115.188 108.063 116.625 108.063 118.312V152.5C108.063 154.25 106.688 155.688 104.938 155.688ZM113.25 228.062C112.625 231.875 110.375 235.312 107.25 237.5C104.313 239.5 100.75 240.188 97.5625 239.5C94.1875 238.75 91.375 236.625 89.5625 233.438C87.75 230.188 87.1875 226.312 88.0625 222.5C88.875 218.688 90.875 212.437 93.75 207.437C94.5625 206.062 95.5 204.562 96.5625 203.312C96.6875 203.312 96.875 203.375 97 203.375C98.4375 203.562 99.9375 203.812 101.563 204.062C103.875 204.438 106.313 204.875 108.75 205C112.438 210.125 114.813 218.875 113.25 228.062ZM120.563 195.562C118.313 203.625 111.688 203.125 101.875 201.5C100.313 201.25 98.6875 201 97.1875 200.812C93.875 200.437 91.375 200 90.375 198.438C89.4375 197 89.5625 194.438 90.6875 190.625C92.125 185.938 95 182.062 98.875 179.625C101.438 178 104.25 177.188 107 177.188C108.375 177.188 109.688 177.375 111.063 177.812C117.75 179.812 121.188 183.75 121.375 189.438C121.25 190.188 121.125 191 121.125 191.812V192.688C121.063 193.625 120.875 194.562 120.563 195.562ZM133.438 239.688C139.688 239.688 144.75 243.562 144.75 248.375C144.75 248.562 144.75 248.688 144.75 248.875C141.125 245.188 136.188 243 130.688 243C128.125 243 125.813 243.312 123.688 244C125.688 241.437 129.313 239.688 133.438 239.688ZM148.438 262.75C149.063 269.75 149 273.75 146.813 276.125C144.5 278.687 139.375 279.75 129.313 279.75C122.688 279.75 117.75 279.5 115 276.375C112.813 273.875 112.188 269.688 113 263.438C114.563 251.562 120.5 245.5 130.75 245.5C140.063 245.5 147.5 252.75 148.438 262.75ZM207.062 263.438C207.875 269.688 207.188 273.875 205.063 276.375C202.313 279.5 197.375 279.75 190.688 279.75C180.563 279.75 175.5 278.687 173.188 276.125C171 273.75 170.938 269.75 171.563 262.75C172.5 252.75 179.938 245.5 189.313 245.5C199.562 245.5 205.5 251.562 207.062 263.438ZM196.313 244C194.188 243.312 191.875 243 189.313 243C183.813 243 178.875 245.188 175.25 248.875C175.25 248.688 175.25 248.562 175.25 248.375C175.25 243.562 180.313 239.688 186.563 239.688C190.688 239.688 194.313 241.437 196.313 244ZM232 222.437C232.813 226.25 232.312 230.125 230.5 233.375C228.688 236.562 225.875 238.688 222.5 239.438C219.25 240.125 215.688 239.437 212.813 237.437C209.625 235.312 207.438 231.875 206.812 228C205.25 218.812 207.625 210.062 211.438 204.875C213.875 204.75 216.312 204.312 218.625 203.937C220.25 203.687 221.75 203.438 223.188 203.25C223.313 203.25 223.5 203.188 223.625 203.188C224.688 204.438 225.625 205.938 226.438 207.312C229.188 212.375 231.125 218.625 232 222.437ZM208.875 177.812C212.875 176.625 217.188 177.25 221 179.625C224.875 182.062 227.813 185.938 229.188 190.625C230.313 194.438 230.438 197 229.5 198.438C228.5 200 226.062 200.437 222.688 200.812C221.188 201 219.562 201.25 218 201.5C208.188 203.125 201.562 203.625 199.312 195.562C199 194.562 198.813 193.625 198.688 192.688V191.812C198.688 191 198.625 190.25 198.438 189.438C198.75 183.75 202.188 179.875 208.875 177.812ZM192.188 186.125C192.563 185.5 192.938 185 193.375 184.438C194.688 185.875 195.625 187.625 196.063 189.562C196.063 190.625 196.125 191.75 196.313 192.938V215.812C196.313 224.125 193.063 231.688 187.813 237.25C187.438 237.25 187 237.188 186.563 237.188C179.938 237.188 174.375 241 173.063 246.062C170.5 246.75 167.75 247.125 164.938 247.125H155.063C152.25 247.125 149.563 246.75 146.938 246.062C145.625 241 140.063 237.188 133.438 237.188C133 237.188 132.625 237.188 132.188 237.25C126.875 231.625 123.688 224.062 123.688 215.812V192.938C123.875 191.75 123.938 190.625 123.938 189.562C124.375 187.625 125.313 185.875 126.625 184.438C127.063 184.938 127.438 185.5 127.813 186.125C129.938 189.562 130 192.625 130.188 200.812C130.25 202.687 130.313 204.812 130.375 207.25V208.062C130.813 220.937 131.313 234.188 145.875 234.188H174C188.563 234.188 189.063 220.875 189.5 208.062V207.25C189.563 204.812 189.625 202.687 189.688 200.812C190 192.625 190.063 189.562 192.188 186.125ZM187.313 181.125C187.438 181.125 187.562 181.188 187.688 181.188C187.875 181.25 188.125 181.313 188.312 181.375C188.563 181.438 188.75 181.5 188.938 181.562C189.063 181.625 189.25 181.688 189.375 181.688C189.563 181.75 189.688 181.812 189.875 181.875C190 181.938 190.125 182 190.25 182.062C190.438 182.125 190.563 182.25 190.688 182.313C190.813 182.375 190.938 182.438 191.063 182.5C191.188 182.562 191.312 182.688 191.438 182.75C190.938 183.375 190.438 184.062 190 184.75C187.563 188.75 187.438 192.25 187.25 200.625C187.188 202.5 187.125 204.562 187.062 207V207.812C186.5 222.5 185.625 231.562 174.063 231.562H145.938C134.375 231.562 133.438 222.562 132.938 207.812V207C132.875 204.562 132.813 202.438 132.75 200.625C132.5 192.25 132.438 188.75 130 184.75C129.563 184.062 129.063 183.375 128.563 182.75C128.688 182.688 128.813 182.562 129 182.5C129.125 182.438 129.188 182.375 129.313 182.313C129.5 182.25 129.625 182.125 129.813 182.062C129.938 182 130.063 181.938 130.188 181.875C130.375 181.812 130.5 181.75 130.688 181.688C130.813 181.625 130.938 181.562 131.063 181.562C131.313 181.5 131.5 181.438 131.75 181.375C131.938 181.313 132.188 181.25 132.375 181.188C132.5 181.188 132.625 181.125 132.75 181.125C132.938 181.062 133.188 181.062 133.375 181C133.5 181 133.625 181 133.688 180.938C134 180.938 134.313 180.875 134.688 180.875H137.5C135.938 181.75 135 182.75 135 184C135 189.25 151.375 190.625 160.063 190.625C168.75 190.625 185.125 189.25 185.125 184C185.125 182.75 184.188 181.688 182.625 180.875H185.438C185.75 180.875 186.125 180.875 186.438 180.938C186.563 180.938 186.688 180.938 186.75 181C186.938 181.062 187.125 181.062 187.313 181.125ZM173.688 180.938C179.625 181.938 182.5 183.375 182.563 184.062C182.438 185.188 175.375 188.188 160 188.188C144.625 188.188 137.5 185.188 137.438 184.062C137.5 183.375 140.375 181.875 146.313 180.938H160H173.688ZM215.125 115.125H219.188C220.938 115.125 222.313 116.562 222.313 118.25V152.5C222.313 154.25 220.875 155.625 219.188 155.625H215.125C213.375 155.625 212 154.188 212 152.5V118.25C212 116.562 213.375 115.125 215.125 115.125ZM212.25 111.625V113.438C210.563 114.438 209.5 116.25 209.5 118.312V152.5C209.5 154.562 210.625 156.375 212.25 157.375V160C212.25 169.312 198.25 173.812 186.563 175.938C173.438 178.375 160.125 178.375 160 178.375C159.813 178.375 146.563 178.375 133.5 175.938C121.75 173.812 107.75 169.25 107.75 159.938V157.312C109.438 156.312 110.563 154.5 110.563 152.438V118.188C110.563 116.125 109.438 114.25 107.75 113.312V111.5C107.75 107.875 110.25 104.875 113.688 103.938L160 115.063L206.313 103.938C209.75 104.938 212.25 108 212.25 111.625ZM113.813 101.5V90.25V83.25L160 71.8125L206.188 83.25V90.3125V101.5L160 112.625L113.813 101.5ZM251.438 77.0625L208.688 89.5625V81.25L160 69.25L111.313 81.25V89.5L82.75 81.125V69.8125L160 42.1875L251.5 74.9375C252.188 75.1875 252.25 75.8125 252.25 76C252.25 76.1875 252.125 76.8125 251.438 77.0625Z" fill="#00D7B0"/>
<path d="M185.812 154.937C193 154.937 198.813 149.125 198.813 141.938C198.813 134.75 193 128.938 185.812 128.938C178.625 128.938 172.813 134.75 172.813 141.938C172.813 149.125 178.625 154.937 185.812 154.937ZM134.188 154.937C141.375 154.937 147.188 149.125 147.188 141.938C147.188 134.75 141.375 128.938 134.188 128.938C127 128.938 121.188 134.75 121.188 141.938C121.188 149.125 127.063 154.937 134.188 154.937Z" fill="#F2F2F2"/>
</svg>
